<svg width="90" height="2224" viewBox="0 0 90 2224" fill="none" xmlns="http://www.w3.org/2000/svg">
<path d="M45 0V886" stroke="white" stroke-width="3"/>
<path fill-rule="evenodd" clip-rule="evenodd" d="M45 976C69.8528 976 90 955.853 90 931C90 906.147 69.8528 886 45 886C20.1472 886 0 906.147 0 931C0 955.853 20.1472 976 45 976ZM45 967C64.8822 967 81 950.882 81 931C81 911.118 64.8822 895 45 895C25.1177 895 9 911.118 9 931C9 950.882 25.1177 967 45 967Z" fill="white"/>
<path d="M45 976V2224" stroke="white" stroke-width="3"/>
</svg>
