<svg width="266" height="207" viewBox="0 0 266 207" fill="none" xmlns="http://www.w3.org/2000/svg">
<path d="M70.1774 171.598L11.0248 112.446C-2.60027 98.8205 -3.59636 77.3488 8.03649 62.5764C9.38424 60.6137 10.9303 58.7461 12.6746 57.0018C28.019 41.6574 52.8972 41.6574 68.2416 57.0018L99.6475 88.4077L177.03 11.0248C191.73 -3.67493 215.563 -3.67494 230.263 11.0248C244.963 25.7246 244.963 49.5576 230.263 64.2573L123.35 171.171C108.65 185.87 84.8771 186.298 70.1774 171.598Z" fill="url(#paint0_linear_309_2301)"/>
<path d="M187.22 105.652C188.303 105.123 189.277 104.397 190.129 103.545V103.545L229.417 64.2573C244.116 49.5576 244.116 25.7246 229.417 11.0248C214.717 -3.67494 190.884 -3.67493 176.184 11.0248L109.427 77.7824L98.8926 88.3165C104.481 94.2877 110.835 100.213 117.53 104.894C124.639 109.864 131.912 113.276 138.901 114.046C153.849 115.694 166.864 113.103 176.157 110.087C180.8 108.58 184.494 106.974 187.013 105.753C187.083 105.719 187.152 105.685 187.22 105.652Z" fill="url(#paint1_linear_309_2301)"/>
<path d="M81.5875 183.009L22.435 123.856C8.80989 110.231 7.8138 88.7594 19.4466 73.9871C20.7944 72.0243 22.3404 70.1568 24.0848 68.4124C39.4292 53.068 64.3073 53.068 79.6517 68.4124L111.058 99.8183L188.441 22.4355C203.14 7.73571 226.973 7.73571 241.673 22.4355C256.373 37.1352 256.373 60.9682 241.673 75.6679L134.76 182.581C120.06 197.281 96.2873 197.708 81.5875 183.009Z" fill="url(#paint2_linear_309_2301)"/>
<path d="M198.631 117.063C199.714 116.533 200.687 115.808 201.539 114.956V114.956L240.827 75.6679C255.527 60.9682 255.527 37.1352 240.827 22.4355C226.127 7.73571 202.294 7.73571 187.594 22.4355L120.837 89.193L110.303 99.7271C115.891 105.698 122.245 111.623 128.94 116.304C136.049 121.275 143.322 124.687 150.312 125.457C165.26 127.104 178.274 124.514 187.568 121.498C192.21 119.991 195.905 118.384 198.423 117.164C198.493 117.13 198.562 117.096 198.631 117.063Z" fill="url(#paint3_linear_309_2301)"/>
<path d="M94.2672 195.687L35.1146 136.535C21.4896 122.91 20.4935 101.438 32.1263 86.6658C33.4741 84.703 35.0201 82.8355 36.7645 81.0911C52.1089 65.7467 76.987 65.7467 92.3314 81.0911L123.737 112.497L201.12 35.1142C215.82 20.4144 239.653 20.4144 254.353 35.1142C269.052 49.8139 269.052 73.6469 254.353 88.3467L147.439 195.26C132.74 209.96 108.967 210.387 94.2672 195.687Z" fill="url(#paint4_linear_309_2301)"/>
<path d="M211.31 129.741C212.393 129.212 213.366 128.487 214.219 127.634V127.634L253.507 88.3467C268.206 73.6469 268.206 49.8139 253.507 35.1142C238.807 20.4144 214.974 20.4144 200.274 35.1142L133.517 101.872L122.982 112.406C128.571 118.377 134.925 124.302 141.62 128.983C148.729 133.953 156.001 137.366 162.991 138.136C177.939 139.783 190.954 137.193 200.247 134.176C204.889 132.67 208.584 131.063 211.103 129.842C211.173 129.808 211.242 129.775 211.31 129.741Z" fill="url(#paint5_linear_309_2301)"/>
<defs>
<linearGradient id="paint0_linear_309_2301" x1="13.1525" y1="59.4293" x2="128.559" y2="162.259" gradientUnits="userSpaceOnUse">
<stop stop-color="#2B21E6"/>
<stop offset="1" stop-color="#7B5EFF"/>
</linearGradient>
<linearGradient id="paint1_linear_309_2301" x1="121.698" y1="158.322" x2="209.325" y2="26.5583" gradientUnits="userSpaceOnUse">
<stop stop-color="#2B21E6"/>
<stop offset="1" stop-color="#7B5EFF"/>
</linearGradient>
<linearGradient id="paint2_linear_309_2301" x1="24.5627" y1="70.8399" x2="139.969" y2="173.67" gradientUnits="userSpaceOnUse">
<stop stop-color="#1775FE"/>
<stop offset="1" stop-color="#3CB4FF"/>
</linearGradient>
<linearGradient id="paint3_linear_309_2301" x1="133.108" y1="169.733" x2="220.736" y2="37.969" gradientUnits="userSpaceOnUse">
<stop stop-color="#1775FE"/>
<stop offset="1" stop-color="#3CB4FF"/>
</linearGradient>
<linearGradient id="paint4_linear_309_2301" x1="37.2424" y1="83.5186" x2="152.649" y2="186.349" gradientUnits="userSpaceOnUse">
<stop stop-color="#20C5E4"/>
<stop offset="1" stop-color="#2CD1CA"/>
</linearGradient>
<linearGradient id="paint5_linear_309_2301" x1="145.788" y1="182.411" x2="233.415" y2="50.6477" gradientUnits="userSpaceOnUse">
<stop stop-color="#5686F8"/>
<stop offset="0.451504" stop-color="#21C6E2"/>
<stop offset="1" stop-color="#2BD0CE"/>
</linearGradient>
</defs>
</svg>
