<svg width="2255" height="1397" viewBox="0 0 2255 1397" fill="none" xmlns="http://www.w3.org/2000/svg">
<g filter="url(#filter0_di_395_4354)">
<path fill-rule="evenodd" clip-rule="evenodd" d="M100.141 40C69.6874 40 45 64.6873 45 95.1407V1290.82C45 1321.28 69.6873 1345.97 100.141 1345.97H2154.86C2185.31 1345.97 2210 1321.28 2210 1290.82V95.1407C2210 64.6874 2185.31 40 2154.86 40H100.141ZM2173.24 122.474H83.6953V1301.27H2173.24V122.474Z" fill="url(#paint0_linear_395_4354)"/>
<mask id="mask0_395_4354" style="mask-type:alpha" maskUnits="userSpaceOnUse" x="82" y="84" width="2091" height="1219">
<rect x="82.7109" y="84.9836" width="2089.54" height="1217.45" rx="4.35322" fill="#8F8F8F"/>
</mask>
<g mask="url(#mask0_395_4354)">
<g filter="url(#filter1_d_395_4354)">
<rect x="82.709" y="84.9836" width="2089.54" height="58.0429" fill="#ECECEC"/>
<rect x="117.533" y="99.4944" width="27.5704" height="27.5704" fill="white"/>
<circle cx="177.752" cy="113.28" r="13.7852" fill="white"/>
<path d="M220.559 99.4944L236.521 127.065H204.598L220.559 99.4944Z" fill="white"/>
<rect x="687.805" y="98.043" width="882.252" height="31.9236" rx="14.5107" fill="white"/>
<path fill-rule="evenodd" clip-rule="evenodd" d="M1541.59 117.256L1541.59 118.206L1535.57 124.209L1533.78 122.417L1539.78 116.402L1540.73 116.402L1541.07 116.077C1539.89 114.705 1539.18 112.925 1539.18 110.988C1539.18 106.669 1542.68 103.168 1547 103.168C1551.32 103.168 1554.82 106.669 1554.82 110.988C1554.82 115.307 1551.32 118.808 1547 118.808C1545.06 118.808 1543.28 118.098 1541.91 116.919L1541.59 117.256ZM1547 105.575C1544.01 105.575 1541.59 107.993 1541.59 110.988C1541.59 113.984 1544.01 116.402 1547 116.402C1550 116.402 1552.41 113.984 1552.41 110.988C1552.41 107.993 1550 105.575 1547 105.575Z" fill="#8B8B8B"/>
<path d="M1061.35 117.557L1063.71 109.99H1064.75L1064.55 111.495L1062.14 119.19H1061.13L1061.35 117.557ZM1059.76 109.99L1061.78 117.643L1061.92 119.19H1060.86L1058.19 109.99H1059.76ZM1067.01 117.583L1068.94 109.99H1070.5L1067.83 119.19H1066.78L1067.01 117.583ZM1064.98 109.99L1067.29 117.43L1067.56 119.19H1066.55L1064.08 111.478L1063.88 109.99H1064.98ZM1074.44 117.557L1076.81 109.99H1077.85L1077.64 111.495L1075.24 119.19H1074.22L1074.44 117.557ZM1072.85 109.99L1074.87 117.643L1075.01 119.19H1073.95L1071.28 109.99H1072.85ZM1080.11 117.583L1082.03 109.99H1083.59L1080.92 119.19H1079.87L1080.11 117.583ZM1078.08 109.99L1080.39 117.43L1080.65 119.19H1079.65L1077.17 111.478L1076.97 109.99H1078.08ZM1087.54 117.557L1089.9 109.99H1090.94L1090.74 111.495L1088.33 119.19H1087.32L1087.54 117.557ZM1085.95 109.99L1087.96 117.643L1088.11 119.19H1087.05L1084.38 109.99H1085.95ZM1093.2 117.583L1095.12 109.99H1096.69L1094.02 119.19H1092.96L1093.2 117.583ZM1091.17 109.99L1093.48 117.43L1093.75 119.19H1092.74L1090.27 111.478L1090.06 109.99H1091.17ZM1097.27 118.357C1097.27 118.09 1097.36 117.866 1097.52 117.685C1097.69 117.498 1097.93 117.404 1098.25 117.404C1098.57 117.404 1098.81 117.498 1098.97 117.685C1099.14 117.866 1099.23 118.09 1099.23 118.357C1099.23 118.617 1099.14 118.839 1098.97 119.02C1098.81 119.201 1098.57 119.292 1098.25 119.292C1097.93 119.292 1097.69 119.201 1097.52 119.02C1097.36 118.839 1097.27 118.617 1097.27 118.357ZM1105.52 118.068C1105.9 118.068 1106.24 117.991 1106.56 117.838C1106.88 117.685 1107.14 117.475 1107.34 117.209C1107.54 116.937 1107.66 116.628 1107.69 116.282H1109.19C1109.16 116.826 1108.97 117.334 1108.63 117.804C1108.3 118.269 1107.86 118.646 1107.32 118.935C1106.77 119.218 1106.17 119.36 1105.52 119.36C1104.83 119.36 1104.23 119.238 1103.71 118.994C1103.2 118.751 1102.77 118.416 1102.43 117.991C1102.1 117.566 1101.85 117.079 1101.68 116.529C1101.51 115.973 1101.43 115.387 1101.43 114.769V114.412C1101.43 113.794 1101.51 113.21 1101.68 112.66C1101.85 112.105 1102.1 111.614 1102.43 111.189C1102.77 110.764 1103.2 110.43 1103.71 110.186C1104.23 109.942 1104.83 109.82 1105.52 109.82C1106.24 109.82 1106.87 109.968 1107.41 110.262C1107.95 110.552 1108.37 110.948 1108.68 111.453C1108.99 111.952 1109.16 112.518 1109.19 113.153H1107.69C1107.66 112.773 1107.55 112.431 1107.37 112.124C1107.18 111.818 1106.94 111.575 1106.62 111.393C1106.31 111.206 1105.94 111.113 1105.52 111.113C1105.04 111.113 1104.63 111.209 1104.31 111.402C1103.98 111.589 1103.72 111.844 1103.53 112.167C1103.34 112.484 1103.21 112.839 1103.12 113.23C1103.04 113.615 1103 114.009 1103 114.412V114.769C1103 115.171 1103.04 115.568 1103.12 115.959C1103.2 116.35 1103.34 116.704 1103.52 117.022C1103.72 117.339 1103.97 117.594 1104.3 117.787C1104.63 117.974 1105.03 118.068 1105.52 118.068ZM1112.53 106.13V119.19H1110.95V106.13H1112.53ZM1112.15 114.242L1111.5 114.216C1111.5 113.587 1111.6 113.006 1111.78 112.473C1111.96 111.935 1112.22 111.467 1112.54 111.07C1112.87 110.673 1113.26 110.367 1113.72 110.152C1114.18 109.931 1114.68 109.82 1115.24 109.82C1115.69 109.82 1116.1 109.883 1116.46 110.007C1116.83 110.126 1117.14 110.319 1117.39 110.586C1117.65 110.852 1117.85 111.198 1117.99 111.623C1118.12 112.042 1118.19 112.555 1118.19 113.162V119.19H1116.61V113.145C1116.61 112.663 1116.54 112.278 1116.4 111.988C1116.25 111.694 1116.05 111.481 1115.77 111.351C1115.5 111.215 1115.17 111.147 1114.77 111.147C1114.38 111.147 1114.02 111.229 1113.7 111.393C1113.38 111.558 1113.11 111.784 1112.88 112.073C1112.65 112.363 1112.47 112.694 1112.34 113.068C1112.22 113.437 1112.15 113.828 1112.15 114.242ZM1124.36 119.36C1123.72 119.36 1123.14 119.252 1122.62 119.037C1122.1 118.816 1121.66 118.507 1121.28 118.11C1120.92 117.713 1120.63 117.243 1120.43 116.699C1120.24 116.155 1120.14 115.559 1120.14 114.913V114.556C1120.14 113.808 1120.25 113.142 1120.47 112.558C1120.69 111.969 1120.99 111.47 1121.37 111.062C1121.75 110.654 1122.18 110.345 1122.66 110.135C1123.14 109.925 1123.64 109.82 1124.16 109.82C1124.82 109.82 1125.38 109.934 1125.86 110.16C1126.34 110.387 1126.73 110.705 1127.04 111.113C1127.35 111.515 1127.57 111.991 1127.72 112.541C1127.87 113.085 1127.94 113.68 1127.94 114.327V115.032H1121.07V113.748H1126.37V113.629C1126.35 113.221 1126.26 112.824 1126.11 112.439C1125.97 112.054 1125.75 111.736 1125.43 111.487C1125.12 111.237 1124.7 111.113 1124.16 111.113C1123.8 111.113 1123.47 111.189 1123.17 111.342C1122.87 111.49 1122.61 111.711 1122.4 112.005C1122.18 112.3 1122.02 112.66 1121.9 113.085C1121.78 113.51 1121.72 114.001 1121.72 114.556V114.913C1121.72 115.35 1121.78 115.761 1121.9 116.146C1122.02 116.526 1122.2 116.86 1122.43 117.149C1122.67 117.438 1122.96 117.665 1123.29 117.83C1123.63 117.994 1124.02 118.076 1124.45 118.076C1125 118.076 1125.47 117.963 1125.86 117.736C1126.24 117.509 1126.58 117.206 1126.87 116.826L1127.82 117.583C1127.62 117.883 1127.37 118.17 1127.07 118.442C1126.76 118.714 1126.38 118.935 1125.94 119.105C1125.49 119.275 1124.97 119.36 1124.36 119.36ZM1133.46 118.068C1133.83 118.068 1134.18 117.991 1134.5 117.838C1134.81 117.685 1135.08 117.475 1135.28 117.209C1135.48 116.937 1135.6 116.628 1135.63 116.282H1137.12C1137.1 116.826 1136.91 117.334 1136.57 117.804C1136.24 118.269 1135.8 118.646 1135.25 118.935C1134.71 119.218 1134.11 119.36 1133.46 119.36C1132.77 119.36 1132.16 119.238 1131.65 118.994C1131.14 118.751 1130.71 118.416 1130.37 117.991C1130.04 117.566 1129.79 117.079 1129.62 116.529C1129.45 115.973 1129.37 115.387 1129.37 114.769V114.412C1129.37 113.794 1129.45 113.21 1129.62 112.66C1129.79 112.105 1130.04 111.614 1130.37 111.189C1130.71 110.764 1131.14 110.43 1131.65 110.186C1132.16 109.942 1132.77 109.82 1133.46 109.82C1134.18 109.82 1134.81 109.968 1135.35 110.262C1135.89 110.552 1136.31 110.948 1136.61 111.453C1136.93 111.952 1137.1 112.518 1137.12 113.153H1135.63C1135.6 112.773 1135.49 112.431 1135.3 112.124C1135.12 111.818 1134.87 111.575 1134.56 111.393C1134.24 111.206 1133.88 111.113 1133.46 111.113C1132.98 111.113 1132.57 111.209 1132.24 111.402C1131.92 111.589 1131.66 111.844 1131.47 112.167C1131.28 112.484 1131.15 112.839 1131.06 113.23C1130.98 113.615 1130.94 114.009 1130.94 114.412V114.769C1130.94 115.171 1130.98 115.568 1131.06 115.959C1131.14 116.35 1131.27 116.704 1131.46 117.022C1131.65 117.339 1131.91 117.594 1132.24 117.787C1132.56 117.974 1132.97 118.068 1133.46 118.068ZM1140.47 106.13V119.19H1138.89V106.13H1140.47ZM1146.09 109.99L1142.08 114.284L1139.84 116.614L1139.71 114.939L1141.32 113.017L1144.17 109.99H1146.09ZM1144.66 119.19L1141.38 114.803L1142.19 113.4L1146.51 119.19H1144.66ZM1149.43 106.13V119.19H1147.85V106.13H1149.43ZM1154.54 118.238L1157.1 109.99H1158.78L1155.09 120.61C1155 120.837 1154.89 121.08 1154.75 121.341C1154.61 121.607 1154.44 121.86 1154.22 122.098C1154.01 122.336 1153.75 122.529 1153.44 122.676C1153.14 122.829 1152.78 122.905 1152.36 122.905C1152.24 122.905 1152.08 122.888 1151.88 122.854C1151.69 122.82 1151.56 122.792 1151.48 122.769L1151.47 121.494C1151.51 121.5 1151.58 121.505 1151.68 121.511C1151.78 121.522 1151.85 121.528 1151.89 121.528C1152.25 121.528 1152.55 121.48 1152.8 121.384C1153.05 121.293 1153.26 121.137 1153.43 120.916C1153.61 120.701 1153.76 120.403 1153.88 120.023L1154.54 118.238ZM1152.66 109.99L1155.05 117.132L1155.46 118.79L1154.32 119.368L1150.94 109.99H1152.66ZM1159.31 118.357C1159.31 118.09 1159.39 117.866 1159.55 117.685C1159.72 117.498 1159.97 117.404 1160.28 117.404C1160.6 117.404 1160.84 117.498 1161.01 117.685C1161.18 117.866 1161.26 118.09 1161.26 118.357C1161.26 118.617 1161.18 118.839 1161.01 119.02C1160.84 119.201 1160.6 119.292 1160.28 119.292C1159.97 119.292 1159.72 119.201 1159.55 119.02C1159.39 118.839 1159.31 118.617 1159.31 118.357ZM1167.55 118.068C1167.93 118.068 1168.27 117.991 1168.59 117.838C1168.91 117.685 1169.17 117.475 1169.37 117.209C1169.58 116.937 1169.69 116.628 1169.72 116.282H1171.22C1171.19 116.826 1171.01 117.334 1170.67 117.804C1170.33 118.269 1169.89 118.646 1169.35 118.935C1168.8 119.218 1168.21 119.36 1167.55 119.36C1166.86 119.36 1166.26 119.238 1165.74 118.994C1165.23 118.751 1164.81 118.416 1164.47 117.991C1164.13 117.566 1163.88 117.079 1163.71 116.529C1163.55 115.973 1163.46 115.387 1163.46 114.769V114.412C1163.46 113.794 1163.55 113.21 1163.71 112.66C1163.88 112.105 1164.13 111.614 1164.47 111.189C1164.81 110.764 1165.23 110.43 1165.74 110.186C1166.26 109.942 1166.86 109.82 1167.55 109.82C1168.27 109.82 1168.9 109.968 1169.44 110.262C1169.98 110.552 1170.4 110.948 1170.71 111.453C1171.02 111.952 1171.19 112.518 1171.22 113.153H1169.72C1169.69 112.773 1169.59 112.431 1169.4 112.124C1169.22 111.818 1168.97 111.575 1168.65 111.393C1168.34 111.206 1167.97 111.113 1167.55 111.113C1167.07 111.113 1166.67 111.209 1166.34 111.402C1166.02 111.589 1165.76 111.844 1165.56 112.167C1165.38 112.484 1165.24 112.839 1165.16 113.23C1165.08 113.615 1165.04 114.009 1165.04 114.412V114.769C1165.04 115.171 1165.08 115.568 1165.16 115.959C1165.24 116.35 1165.37 116.704 1165.56 117.022C1165.75 117.339 1166.01 117.594 1166.33 117.787C1166.66 117.974 1167.07 118.068 1167.55 118.068ZM1172.57 114.692V114.497C1172.57 113.833 1172.67 113.218 1172.86 112.652C1173.05 112.079 1173.33 111.583 1173.69 111.164C1174.06 110.739 1174.5 110.41 1175.01 110.177C1175.53 109.939 1176.11 109.82 1176.75 109.82C1177.39 109.82 1177.97 109.939 1178.49 110.177C1179.01 110.41 1179.45 110.739 1179.81 111.164C1180.18 111.583 1180.46 112.079 1180.66 112.652C1180.85 113.218 1180.95 113.833 1180.95 114.497V114.692C1180.95 115.355 1180.85 115.97 1180.66 116.537C1180.46 117.104 1180.18 117.6 1179.81 118.025C1179.45 118.445 1179.01 118.773 1178.5 119.011C1177.99 119.244 1177.41 119.36 1176.76 119.36C1176.12 119.36 1175.54 119.244 1175.02 119.011C1174.5 118.773 1174.06 118.445 1173.69 118.025C1173.33 117.6 1173.05 117.104 1172.86 116.537C1172.67 115.97 1172.57 115.355 1172.57 114.692ZM1174.14 114.497V114.692C1174.14 115.151 1174.2 115.585 1174.31 115.993C1174.41 116.395 1174.57 116.753 1174.79 117.064C1175.01 117.376 1175.29 117.623 1175.61 117.804C1175.94 117.98 1176.33 118.068 1176.76 118.068C1177.19 118.068 1177.57 117.98 1177.89 117.804C1178.22 117.623 1178.49 117.376 1178.71 117.064C1178.92 116.753 1179.09 116.395 1179.19 115.993C1179.31 115.585 1179.36 115.151 1179.36 114.692V114.497C1179.36 114.043 1179.31 113.615 1179.19 113.213C1179.09 112.805 1178.92 112.445 1178.7 112.133C1178.49 111.816 1178.21 111.566 1177.88 111.385C1177.56 111.203 1177.18 111.113 1176.75 111.113C1176.31 111.113 1175.93 111.203 1175.61 111.385C1175.28 111.566 1175.01 111.816 1174.79 112.133C1174.57 112.445 1174.41 112.805 1174.31 113.213C1174.2 113.615 1174.14 114.043 1174.14 114.497ZM1184.48 111.818V119.19H1182.9V109.99H1184.4L1184.48 111.818ZM1184.16 114.242L1183.43 114.216C1183.43 113.587 1183.52 113.006 1183.67 112.473C1183.83 111.935 1184.07 111.467 1184.38 111.07C1184.69 110.673 1185.08 110.367 1185.55 110.152C1186.01 109.931 1186.55 109.82 1187.16 109.82C1187.59 109.82 1187.99 109.883 1188.35 110.007C1188.71 110.126 1189.03 110.316 1189.3 110.577C1189.56 110.838 1189.77 111.172 1189.92 111.58C1190.06 111.988 1190.14 112.482 1190.14 113.06V119.19H1188.56V113.136C1188.56 112.654 1188.48 112.269 1188.32 111.98C1188.16 111.691 1187.93 111.481 1187.64 111.351C1187.34 111.215 1187 111.147 1186.6 111.147C1186.14 111.147 1185.75 111.229 1185.43 111.393C1185.12 111.558 1184.87 111.784 1184.69 112.073C1184.5 112.363 1184.36 112.694 1184.28 113.068C1184.2 113.437 1184.16 113.828 1184.16 114.242ZM1190.12 113.374L1189.07 113.697C1189.07 113.193 1189.15 112.708 1189.31 112.243C1189.48 111.779 1189.71 111.365 1190.02 111.002C1190.33 110.639 1190.71 110.353 1191.17 110.143C1191.62 109.928 1192.14 109.82 1192.72 109.82C1193.21 109.82 1193.65 109.886 1194.03 110.016C1194.42 110.146 1194.74 110.347 1195 110.62C1195.27 110.886 1195.47 111.229 1195.6 111.648C1195.74 112.068 1195.81 112.567 1195.81 113.145V119.19H1194.23V113.128C1194.23 112.612 1194.14 112.212 1193.98 111.929C1193.82 111.64 1193.59 111.439 1193.3 111.325C1193.01 111.206 1192.66 111.147 1192.26 111.147C1191.92 111.147 1191.61 111.206 1191.34 111.325C1191.08 111.444 1190.85 111.609 1190.67 111.818C1190.49 112.022 1190.35 112.258 1190.26 112.524C1190.17 112.79 1190.12 113.074 1190.12 113.374Z" fill="#8B8B8B"/>
</g>
</g>
<rect x="1047.69" y="55.9617" width="175.58" height="13.0597" rx="6.52983" fill="#CECECE"/>
<circle cx="1242.86" cy="62.4915" r="6.52983" fill="#CECECE"/>
<circle cx="1012.14" cy="62.4915" r="6.52983" fill="#CECECE"/>
</g>
<defs>
<filter id="filter0_di_395_4354" x="0.016758" y="0.821047" width="2254.97" height="1395.93" filterUnits="userSpaceOnUse" color-interpolation-filters="sRGB">
<feFlood flood-opacity="0" result="BackgroundImageFix"/>
<feColorMatrix in="SourceAlpha" type="matrix" values="0 0 0 0 0 0 0 0 0 0 0 0 0 0 0 0 0 0 127 0" result="hardAlpha"/>
<feOffset dy="5.80429"/>
<feGaussianBlur stdDeviation="22.4916"/>
<feColorMatrix type="matrix" values="0 0 0 0 0 0 0 0 0 0 0 0 0 0 0 0 0 0 0.26 0"/>
<feBlend mode="normal" in2="BackgroundImageFix" result="effect1_dropShadow_395_4354"/>
<feBlend mode="normal" in="SourceGraphic" in2="effect1_dropShadow_395_4354" result="shape"/>
<feColorMatrix in="SourceAlpha" type="matrix" values="0 0 0 0 0 0 0 0 0 0 0 0 0 0 0 0 0 0 127 0" result="hardAlpha"/>
<feOffset dx="-8.70643" dy="-14.5107"/>
<feGaussianBlur stdDeviation="5.07875"/>
<feComposite in2="hardAlpha" operator="arithmetic" k2="-1" k3="1"/>
<feColorMatrix type="matrix" values="0 0 0 0 0 0 0 0 0 0 0 0 0 0 0 0 0 0 0.08 0"/>
<feBlend mode="normal" in2="shape" result="effect2_innerShadow_395_4354"/>
</filter>
<filter id="filter1_d_395_4354" x="65.2961" y="73.3751" width="2124.37" height="92.8687" filterUnits="userSpaceOnUse" color-interpolation-filters="sRGB">
<feFlood flood-opacity="0" result="BackgroundImageFix"/>
<feColorMatrix in="SourceAlpha" type="matrix" values="0 0 0 0 0 0 0 0 0 0 0 0 0 0 0 0 0 0 127 0" result="hardAlpha"/>
<feOffset dy="5.80429"/>
<feGaussianBlur stdDeviation="8.70643"/>
<feColorMatrix type="matrix" values="0 0 0 0 0 0 0 0 0 0 0 0 0 0 0 0 0 0 0.14 0"/>
<feBlend mode="normal" in2="BackgroundImageFix" result="effect1_dropShadow_395_4354"/>
<feBlend mode="normal" in="SourceGraphic" in2="effect1_dropShadow_395_4354" result="shape"/>
</filter>
<linearGradient id="paint0_linear_395_4354" x1="1127.5" y1="40" x2="1127.5" y2="1345.97" gradientUnits="userSpaceOnUse">
<stop stop-color="#F5F5F5"/>
<stop offset="1" stop-color="white"/>
</linearGradient>
</defs>
</svg>
